<svg xmlns="http://www.w3.org/2000/svg" fill="none" viewBox="0 0 36 36"><path fill="url(#a)" d="M6 5.5A3.5 3.5 0 0 1 9.5 2H23a7 7 0 0 1 7 7v21.5a3.5 3.5 0 0 1-3.5 3.5H13a7 7 0 0 1-7-7V5.5z"/><path fill="url(#b)" d="M7 5.5A2.5 2.5 0 0 1 9.5 3H23a6 6 0 0 1 6 6v21.5a2.5 2.5 0 0 1-2.5 2.5H13a6 6 0 0 1-6-6V5.5z"/><path fill="url(#c)" d="M7 5.5A2.5 2.5 0 0 1 9.5 3H23a6 6 0 0 1 6 6v21.5a2.5 2.5 0 0 1-2.5 2.5H13a6 6 0 0 1-6-6V5.5z"/><path fill="url(#d)" d="M25 19.053v6.197A1.75 1.75 0 0 1 23.25 27H17v-3.5a4.501 4.501 0 0 0-3.243-4.321L18 14l7 5.053z"/><path fill="url(#e)" d="M25 19.25A1.75 1.75 0 0 1 23.25 21h-7.009a4.495 4.495 0 0 0-3.741-2H11v-2.48a2.25 2.25 0 0 1 2.25-2.25h10.194L25 13v6.25z"/><path fill="url(#f)" fill-opacity=".6" d="M25 19.25A1.75 1.75 0 0 1 23.25 21h-7.009a4.495 4.495 0 0 0-3.741-2H11v-2.48a2.25 2.25 0 0 1 2.25-2.25h10.194L25 13v6.25z"/><path fill="url(#g)" fill-opacity=".1" d="M25 19.25A1.75 1.75 0 0 1 23.25 21h-7.009a4.495 4.495 0 0 0-3.741-2H11v-2.48a2.25 2.25 0 0 1 2.25-2.25h10.194L25 13v6.25z"/><path fill="url(#h)" d="M23.25 9c.966 0 1.75.784 1.75 1.75v2.5A1.75 1.75 0 0 1 23.25 15H14a3 3 0 0 0-3 3v-6a3 3 0 0 1 3-3h9.25z"/><path fill="url(#i)" fill-opacity=".8" d="M23.25 9c.966 0 1.75.784 1.75 1.75v2.5A1.75 1.75 0 0 1 23.25 15H14a3 3 0 0 0-3 3v-6a3 3 0 0 1 3-3h9.25z"/><rect width="15" height="15" x="1" y="20" fill="url(#j)" rx="3.5"/><rect width="15" height="15" x="1" y="20" fill="url(#k)" fill-opacity=".65" rx="3.5"/><path fill="#fff" d="m13.9 23-1.938 8.999L9.644 32 8.5 26.6 7.302 32h-2.34L3.1 23.001h1.91l1.15 5.939 1.142-5.939h2.342l1.196 5.939 1.122-5.939L13.9 23z"/><defs><linearGradient id="a" x1="13.75" x2="19.418" y1="2" y2="33.881" gradientUnits="userSpaceOnUse"><stop stop-color="#BBB"/><stop offset="1" stop-color="#888"/></linearGradient><linearGradient id="b" x1="13.111" x2="18.218" y1="3" y2="32.963" gradientUnits="userSpaceOnUse"><stop stop-color="#fff"/><stop offset="1" stop-color="#EBEBEB"/></linearGradient><radialGradient id="c" cx="0" cy="0" r="1" gradientTransform="matrix(11.6111 23.75 -17.4167 8.90625 14.028 10.813)" gradientUnits="userSpaceOnUse"><stop offset=".177" stop-color="#fff"/><stop offset="1" stop-color="#EFEFEF"/></radialGradient><radialGradient id="d" cx="0" cy="0" r="1" gradientTransform="matrix(34.8836 0 0 10.0747 24.358 27)" gradientUnits="userSpaceOnUse"><stop offset=".18" stop-color="#1657F4"/><stop offset=".575" stop-color="#0036C4"/></radialGradient><linearGradient id="e" x1="11" x2="21.721" y1="23.398" y2="23.398" gradientUnits="userSpaceOnUse"><stop stop-color="#66C0FF"/><stop offset=".256" stop-color="#0094F0"/></linearGradient><radialGradient id="f" cx="0" cy="0" r="1" gradientTransform="matrix(-9.44088 20.1202 -20.7517 -55.0063 25 13.677)" gradientUnits="userSpaceOnUse"><stop offset=".14" stop-color="#D471FF"/><stop offset=".831" stop-color="#509DF5" stop-opacity="0"/></radialGradient><radialGradient id="g" cx="0" cy="0" r="1" gradientTransform="matrix(0 17.5974 -47.4352 0 22.952 27.398)" gradientUnits="userSpaceOnUse"><stop offset=".283" stop-color="#4F006F" stop-opacity="0"/><stop offset="1" stop-color="#4F006F"/></radialGradient><linearGradient id="h" x1="11" x2="24.997" y1="13.5" y2="13.716" gradientUnits="userSpaceOnUse"><stop stop-color="#9DEAFF"/><stop offset=".201" stop-color="#3BD5FF"/></linearGradient><radialGradient id="i" cx="0" cy="0" r="1" gradientTransform="matrix(-13.4036 3.35377 -8.39903 -34.1706 25 9.293)" gradientUnits="userSpaceOnUse"><stop offset=".061" stop-color="#E4A7FE"/><stop offset=".539" stop-color="#E4A7FE" stop-opacity="0"/></radialGradient><radialGradient id="j" cx="0" cy="0" r="1" gradientTransform="matrix(15 15 -15 15 1 20)" gradientUnits="userSpaceOnUse"><stop offset=".081" stop-color="#367AF2"/><stop offset=".872" stop-color="#001A8F"/></radialGradient><radialGradient id="k" cx="0" cy="0" r="1" gradientTransform="matrix(0 10.5 -11.9672 0 8.5 29)" gradientUnits="userSpaceOnUse"><stop offset=".587" stop-color="#2763E5" stop-opacity="0"/><stop offset=".974" stop-color="#58AAFE"/></radialGradient></defs></svg>